<svg width="476" height="476" viewBox="0 0 476 476" fill="none" xmlns="http://www.w3.org/2000/svg">
<path d="M350.187 102.535L233.498 214.97L181.318 168.97L153.027 198.394L233.498 272.685L381.607 130.36L350.187 102.535Z" fill="#0084FF"/>
<path d="M470.257 185.934C444.652 206.452 419.174 227.467 390.733 244.199C381.718 249.652 372.254 254.832 362.649 259.684C357.735 262.155 352.82 264.542 347.864 266.831C343.464 268.889 339.062 270.868 334.657 272.768C274.222 296.737 208.936 316.401 143.355 317.536C136.481 317.648 129.608 317.571 122.727 317.255C108.115 316.637 93.5664 314.957 79.1984 312.229C47.1344 305.831 13.6662 281.084 22.0631 244.423C33.6615 198.534 88.4821 174.57 119.5 161.5C120.202 161.192 115 166.5 102.5 194C76.193 207.147 56.3878 237.702 57.0267 252.508C55.0047 270.891 82.435 276.674 96.7856 280.125C100.141 280.722 103.509 281.247 106.888 281.7C113.689 282.633 120.516 283.334 127.368 283.8C173.003 286.817 219.235 279.684 263.846 270.499C290.242 264.838 316.268 257.574 341.777 248.749C347.176 246.936 352.511 244.976 357.791 242.917C364.063 240.477 370.26 237.884 376.382 235.14C408.615 220.803 439.211 202.882 469.857 185.346L470.257 185.934Z" fill="url(#paint0_radial)"/>
<path d="M232.5 103C261.36 103 288.173 111.764 310.423 126.775L290.355 145.997C273.45 135.84 253.657 130 232.5 130C170.368 130 120 180.368 120 242.5C120 257.093 122.778 271.036 127.835 283.831C127.679 283.821 127.524 283.811 127.368 283.8C120.516 283.334 113.689 282.633 106.888 281.7C103.984 281.311 101.089 280.869 98.2024 280.373C94.813 268.33 93 255.627 93 242.5C93 165.456 155.456 103 232.5 103Z" fill="#0084FF"/>
<path d="M126.48 333.169C152.066 363.058 190.071 382 232.5 382C303.995 382 362.927 328.217 371.046 258.903C366.955 261.316 362.811 263.671 358.637 265.963C352.469 269.361 346.237 272.622 340.01 275.735C325.834 321.643 283.063 355 232.5 355C206.061 355 181.753 345.88 162.549 330.614C152.424 331.829 142.278 332.642 132.125 333C130.243 333.074 128.362 333.13 126.48 333.169Z" fill="#0084FF"/>
<path d="M344.883 247.688C349.224 246.179 353.526 244.58 357.791 242.917C362.536 241.071 367.239 239.137 371.898 237.117C370.995 213.328 364.136 191.064 352.768 171.775L332.585 191.075C340.52 206.488 345 223.971 345 242.5C345 244.239 344.961 245.968 344.883 247.688Z" fill="#0084FF"/>
<defs>
<radialGradient id="paint0_radial" cx="0" cy="0" r="1" gradientUnits="userSpaceOnUse" gradientTransform="translate(120.937 179.698) rotate(84.9154) scale(211.755 288.81)">
<stop stop-color="#3B5998"/>
<stop offset="0.65" stop-color="#0084FF"/>
<stop offset="0.98" stop-color="#85B1F5"/>
</radialGradient>
</defs>
</svg>
